<?xml version="1.0" encoding="utf-8"?>
<!-- Generator: Adobe Illustrator 22.1.0, SVG Export Plug-In . SVG Version: 6.00 Build 0)  -->
<svg version="1.1"
	 id="svg2" inkscape:version="0.91 r13725" sodipodi:docname="DC_Comics_Logo.svg" xmlns:cc="http://creativecommons.org/ns#" xmlns:dc="http://purl.org/dc/elements/1.1/" xmlns:inkscape="http://www.inkscape.org/namespaces/inkscape" xmlns:rdf="http://www.w3.org/1999/02/22-rdf-syntax-ns#" xmlns:sodipodi="http://sodipodi.sourceforge.net/DTD/sodipodi-0.dtd" xmlns:svg="http://www.w3.org/2000/svg"
	 xmlns="http://www.w3.org/2000/svg" xmlns:xlink="http://www.w3.org/1999/xlink" x="0px" y="0px" viewBox="0 0 800 800"
	 style="enable-background:new 0 0 800 800;" xml:space="preserve">
<style type="text/css">
	.st0{fill:#FFFFFF;}
	.st1{fill:#0078F0;}
</style>
<circle class="st0" cx="397.5" cy="400.5" r="365.3"/>
<path id="path4171" inkscape:connector-curvature="0" sodipodi:nodetypes="sssssccccccccccccccccccccccccccccccccccccccccccccccccc" class="st1" d="
	M397.6,23.3c-207.7,0-376,168.6-376,376.6c0,208,168.3,376.6,376,376.6c207.7,0,376-168.6,376-376.6
	C773.6,191.9,605.3,23.3,397.6,23.3z M399.2,50.2c116.1,0.1,224.5,58.2,289,154.9l-55.6,0.8l-12.3,26.7l-36.4-26.3l-84.7-0.8
	l-75.4,55.1l-0.4,301.3l76.3,53.8l171.3,0.4C604.9,698.9,505,747.2,399.2,747.4c-105.9,0-206-48.3-272-131.3l0.8-0.4h190.7l75-55.1
	l-0.8-300l-73.7-55.5H110.2C174.7,108.4,283.1,50.3,399.2,50.2z M710.9,244.2c23.8,48,36.2,100.9,36.3,154.6
	c-0.1,60.9-16.1,120.8-46.5,173.5l-0.2-1.6V469.5h-97.9l0.4,53.4l-45.3,0.4c-20.6-2.7-26.4-7.5-30.1-29.7V319.5l-25-19.5l100.8-0.4
	l0.4,57.2l89.4,0.4l17.4-108.1L710.9,244.2z M71.3,283.7l37.2,26.5l-0.4,278.4l-0.4,0.2c-36.7-56.5-56.3-122.5-56.3-190
	C51.5,359.6,58.2,320.7,71.3,283.7z M260.7,299.6c18.2,2.6,25.9,13,27.6,30.3v166.3c-3,15.7-10.2,23.6-27.6,27l-48.5,0.3V318.8
	l-24.9-18.9L260.7,299.6z"/>
</svg>
