<?xml version="1.0" encoding="utf-8"?>
<!-- Generator: Adobe Illustrator 22.1.0, SVG Export Plug-In . SVG Version: 6.00 Build 0)  -->
<svg version="1.1"
	 id="svg2" inkscape:version="0.91 r13725" sodipodi:docname="DC_Comics_Logo.svg" xmlns:cc="http://creativecommons.org/ns#" xmlns:dc="http://purl.org/dc/elements/1.1/" xmlns:inkscape="http://www.inkscape.org/namespaces/inkscape" xmlns:rdf="http://www.w3.org/1999/02/22-rdf-syntax-ns#" xmlns:sodipodi="http://sodipodi.sourceforge.net/DTD/sodipodi-0.dtd" xmlns:svg="http://www.w3.org/2000/svg"
	 xmlns="http://www.w3.org/2000/svg" xmlns:xlink="http://www.w3.org/1999/xlink" x="0px" y="0px" viewBox="0 0 800 800"
	 style="enable-background:new 0 0 800 800;" xml:space="preserve">
<style type="text/css">
	.st0{fill:#FFFFFF;}
	.st1{fill:#E50B14;}
</style>
<circle class="st0" cx="397.5" cy="400.5" r="365.3"/>
<path id="path4171" inkscape:connector-curvature="0" sodipodi:nodetypes="sssssccccccccccccccccccccccccccccccccccccccccccccccccc" class="st1" d="
	M397.6,23.3c-207.7,0-376,168.6-376,376.6s168.3,376.6,376,376.6s376-168.6,376-376.6S605.3,23.3,397.6,23.3z M700.7,572.3l-0.2-1.6
	"/>
<g id="layer1" transform="translate(887.14288,284.1031)">
	<g id="g7995" transform="matrix(1.7147021,0,0,1.7147021,-1454.2609,-379.792)">
		<g id="g4976" transform="matrix(1.25,0,0,-1.25,404.49326,66.292595)">
			<path id="path4978_1_" class="st0" d="M156.1-297.6v114l-19.4-114H114l-19.4,114v-114H52.4v238.3h54.7l19.4-122l19.4,122h54.7
				v-238.3H156.1z"/>
		</g>
	</g>
</g>
</svg>
